<svg width="48" height="59" viewBox="0 0 48 59" fill="none" xmlns="http://www.w3.org/2000/svg">
<path d="M39.7447 31.5168C39.8269 40.3805 47.5038 43.3301 47.5888 43.3676C47.5239 43.5755 46.3622 47.571 43.5443 51.698C41.1082 55.2661 38.5801 58.8209 34.5974 58.8945C30.684 58.9668 29.4256 56.569 24.9515 56.569C20.4788 56.569 19.0807 58.821 15.3762 58.9669C11.5319 59.1128 8.60443 55.1087 6.14833 51.5536C1.12936 44.2819 -2.70617 31.0054 2.44398 22.0436C5.00246 17.5931 9.57466 14.7749 14.5374 14.7026C18.3124 14.6305 21.8754 17.2478 24.1832 17.2478C26.4896 17.2478 30.8195 14.1002 35.3714 14.5625C37.277 14.642 42.6262 15.3339 46.0609 20.3724C45.7841 20.5443 39.6784 24.1064 39.7447 31.5168ZM32.39 9.75162C34.4309 7.2758 35.8046 3.82922 35.4299 0.399902C32.488 0.518396 28.9306 2.36452 26.8204 4.83898C24.9293 7.03023 23.2731 10.5375 23.72 13.8989C26.9991 14.1532 30.3489 12.229 32.39 9.75162Z" fill="#252B33"/>
</svg>
